<?xml version="1.0" encoding="UTF-8"?>
<svg id="Layer_2" data-name="Layer 2" xmlns="http://www.w3.org/2000/svg" viewBox="0 0 1920 1920">
  <defs>
    <style>
      .cls-1, .cls-2 {
        stroke-width: 0px;
      }

      .cls-2 {
        fill: #fff;
      }
    </style>
  </defs>
  <g id="Layer_1-2" data-name="Layer 1">
    <rect class="cls-2" x="0" y="0" width="1920" height="1920" rx="960" ry="960"/>
    <path class="cls-1" d="M1397.51,363.23l-700.25-97.5c-167.52-23.32-321.98,94.25-344.11,261.93l-90.73,687.45c-21.91,166,94.23,318.58,260.07,341.67l700.25,97.5c167.52,23.32,321.98-94.25,344.11-261.93l90.73-687.45c21.91-166-94.23-318.58-260.07-341.67ZM1269.48,481.92c81.12,0,146.89,65.76,146.89,146.89s-65.76,146.89-146.89,146.89-146.89-65.76-146.89-146.89,65.76-146.89,146.89-146.89ZM481.98,1287.78l-43.96-290.47h0c-24.28-160.42,86.09-310.15,246.51-334.43h0l290.47-43.96,43.96,290.47-290.47,43.96,43.96,290.47-290.47,43.96ZM1421.8,1108.58h0c0,162.25-131.53,293.78-293.78,293.78h-293.78v-293.78h293.78v-293.78h293.78v293.78Z"/>
  </g>
</svg>